<?xml version="1.0" encoding="UTF-8" standalone="no"?>
<!-- Created with Inkscape (http://www.inkscape.org/) -->

<svg
   width="111.15101mm"
   height="98.181946mm"
   viewBox="0 0 111.15101 98.181946"
   version="1.1"
   id="svg990"
   inkscape:version="1.1.1 (3bf5ae0d25, 2021-09-20)"
   sodipodi:docname="heart-icon-tarent-manjaro.svg"
   inkscape:export-filename="/home/asalam/Seafile/tarent/tarent-manjaro/icons/heart-icon-tarent-manjaro-x128.png"
   inkscape:export-xdpi="29.23348"
   inkscape:export-ydpi="29.23348"
   xmlns:inkscape="http://www.inkscape.org/namespaces/inkscape"
   xmlns:sodipodi="http://sodipodi.sourceforge.net/DTD/sodipodi-0.dtd"
   xmlns="http://www.w3.org/2000/svg"
   xmlns:svg="http://www.w3.org/2000/svg">
  <sodipodi:namedview
     id="namedview992"
     pagecolor="#ffffff"
     bordercolor="#666666"
     borderopacity="1.0"
     inkscape:pageshadow="2"
     inkscape:pageopacity="0.0"
     inkscape:pagecheckerboard="0"
     inkscape:document-units="mm"
     showgrid="false"
     fit-margin-top="0"
     fit-margin-left="0"
     fit-margin-right="0"
     fit-margin-bottom="0"
     inkscape:zoom="0.75187991"
     inkscape:cx="235.40993"
     inkscape:cy="178.88495"
     inkscape:window-width="1920"
     inkscape:window-height="1044"
     inkscape:window-x="1920"
     inkscape:window-y="0"
     inkscape:window-maximized="1"
     inkscape:current-layer="layer1" />
  <defs
     id="defs987">
    <inkscape:path-effect
       effect="simplify"
       id="path-effect26923"
       is_visible="true"
       lpeversion="1"
       steps="1"
       threshold="0.000408163"
       smooth_angles="360"
       helper_size="0"
       simplify_individual_paths="false"
       simplify_just_coalesce="false" />
  </defs>
  <g
     inkscape:label="Ebene 1"
     inkscape:groupmode="layer"
     id="layer1"
     transform="translate(-42.603408,-101.16851)">
    <g
       id="g28062"
       transform="matrix(0.21709182,0,0,0.21709182,135.87375,113.13906)">
      <g
         id="g23865"
         transform="translate(-164.6555,1006.5079)">
        <path
           style="fill:#bb242a;fill-opacity:1"
           d="m 209.67505,-1017.0154 c -25.486,-28.783 -60.712,-44.633 -99.188,-44.633 -30.224999,0 -58.500001,12.299 -81.767001,35.566 -15.521998,15.523 -28.329998,35.25999 -37.698998,57.93099 -9.371,-22.671 -22.177,-42.40699 -37.699,-57.93099 -23.267,-23.267 -51.542,-35.566 -81.767001,-35.566 -38.477,0 -73.702,15.851 -99.188,44.634 -23.735,26.80099 -37.347,63.40699 -37.347,100.43199 0,44.458 13.452,88.335 39.981,130.418 21.009,33.324 50.227,65.585 86.845,95.889 62.046001,51.348 123.114001,78.995 125.683001,80.146 2.203,0.988 4.779,0.988 6.981,0 2.57,-1.151 63.636998,-28.798 125.682999,-80.146 36.618,-30.304 65.836,-62.565 86.845,-95.889 26.53,-42.083 39.982,-85.96 39.982,-130.418 0,-37.025 -13.612,-73.631 -37.345,-100.43299 z"
           id="path23809" />
        <g
           id="g23813" />
        <g
           id="g23815" />
        <g
           id="g23817" />
        <g
           id="g23819" />
        <g
           id="g23821" />
        <g
           id="g23823" />
        <g
           id="g23825" />
        <g
           id="g23827" />
        <g
           id="g23829" />
        <g
           id="g23831" />
        <g
           id="g23833" />
        <g
           id="g23835" />
        <g
           id="g23837" />
        <g
           id="g23839" />
        <g
           id="g23841" />
      </g>
      <g
         fill="#35bf5c"
         transform="matrix(2.4379753,0,0,2.4379753,-371.43327,29.702027)"
         id="g8-2-0-2"
         style="fill:#ffffff;fill-opacity:1">
        <path
           d="M 0,0 V 64 H 18 V 18 H 41 V 0 Z"
           id="path2-9-9-9"
           style="fill:#ffffff;fill-opacity:1" />
        <path
           d="M 23,23 V 64 H 41 V 23 Z"
           id="path4-1-3-3"
           style="fill:#ffffff;fill-opacity:1" />
        <path
           d="M 46,0 V 64 H 64 V 0 Z"
           id="path6-2-6-1"
           style="fill:#ffffff;fill-opacity:1" />
      </g>
      <path
         id="tarent_dot_red_rgb-3-6-0-9"
         style="fill:#ffffff;fill-opacity:1;fill-rule:evenodd;stroke:none;stroke-width:1.07637"
         d="m -128.72829,67.015711 c -5.9448,0 -10.76419,4.81946 -10.76419,10.764177 v 47.360502 c 0,5.94472 4.81939,10.76418 10.76419,10.76418 H 13.199296 l -28.98414,28.98688 c -4.20539,4.20432 -4.20539,11.01562 0,15.21995 2.09999,2.10216 4.85623,3.15345 7.6106702,3.15345 2.75443,0 5.50931,-1.05129 7.60930005,-3.15345 L 46.795516,132.7509 c 4.20539,-4.20411 4.20539,-11.01542 0,-15.21995 L -0.56487375,70.170661 c -4.20001005,-4.20539 -11.01996025,-4.20539 -15.21997025,0 -4.20539,4.202187 -4.20539,11.017747 0,15.219947 l 28.98414,28.985602 H -117.96405 V 77.779888 c 0,-5.944717 -4.81943,-10.764177 -10.76424,-10.764177 z" />
      <path
         style="fill:none;stroke:#ffffff;stroke-width:12.2;stroke-linecap:round;stroke-linejoin:round;stroke-miterlimit:4;stroke-dasharray:none;stroke-opacity:1"
         d="m -290.44426,236.52847 c 17.01881,21.99911 39.05381,40.91858 65.45109,50.61794 23.93544,8.79479 50.44803,8.66439 74.96777,2.34532 31.15774,-8.02977 59.685128,-24.21905 84.919951,-43.86892 10.566694,-8.22808 20.804946,-16.95668 30.092228,-26.62151"
         id="path26921"
         inkscape:path-effect="#path-effect26923"
         inkscape:original-d="m -290.44426,236.52847 c 104.37835,134.19232 245.727523,-7.05176 255.431039,-17.52717"
         sodipodi:nodetypes="cc" />
    </g>
  </g>
</svg>
